<svg xmlns="http://www.w3.org/2000/svg" viewBox="0 30 500 470" width="500" height="580">
  <defs>

    <linearGradient id="gradM" x1="0%" y1="0%" x2="100%" y2="100%">
      <stop offset="0%"   stop-color="#6B4FBB"/>
      <stop offset="50%"  stop-color="#C054A0"/>
      <stop offset="100%" stop-color="#F0546A"/>
    </linearGradient>
    <linearGradient id="gradHexFill" x1="0%" y1="0%" x2="100%" y2="100%">
      <stop offset="0%"   stop-color="#EDE8F8" stop-opacity="0.6"/>
      <stop offset="100%" stop-color="#FAE8EE" stop-opacity="0.4"/>
    </linearGradient>
    <linearGradient id="gradHexStroke" x1="0%" y1="0%" x2="100%" y2="100%">
      <stop offset="0%"   stop-color="#8B6CD4" stop-opacity="0.85"/>
      <stop offset="100%" stop-color="#E87090" stop-opacity="0.85"/>
    </linearGradient>
    <linearGradient id="gradArrow" x1="0%" y1="0%" x2="100%" y2="0%">
      <stop offset="0%"   stop-color="#5BA8C8"/>
      <stop offset="100%" stop-color="#3ECBA0"/>
    </linearGradient>
    <linearGradient id="gradWordArt" x1="65" y1="0" x2="435" y2="0" gradientUnits="userSpaceOnUse">
      <stop offset="0%"   stop-color="#5C35B5"/>
      <stop offset="30%"  stop-color="#A040A0"/>
      <stop offset="65%"  stop-color="#D4508A"/>
      <stop offset="100%" stop-color="#EE4466"/>
    </linearGradient>
    <linearGradient id="gradSheen" x1="0" y1="320" x2="0" y2="370" gradientUnits="userSpaceOnUse">
      <stop offset="0%"   stop-color="#FFFFFF" stop-opacity="0.55"/>
      <stop offset="50%"  stop-color="#FFFFFF" stop-opacity="0.0"/>
      <stop offset="100%" stop-color="#000000" stop-opacity="0.1"/>
    </linearGradient>
    <linearGradient id="gradCrown" x1="0%" y1="0%" x2="0%" y2="100%">
      <stop offset="0%"   stop-color="#FFF5B0"/>
      <stop offset="45%"  stop-color="#FFD700"/>
      <stop offset="100%" stop-color="#E08800"/>
    </linearGradient>
    <linearGradient id="gradGlobe" x1="0%" y1="0%" x2="100%" y2="100%">
      <stop offset="0%"   stop-color="#5BA8C8"/>
      <stop offset="100%" stop-color="#3ECBA0"/>
    </linearGradient>

    <filter id="glowM" x="-30%" y="-30%" width="160%" height="160%">
      <feGaussianBlur stdDeviation="7" result="b"/>
      <feMerge><feMergeNode in="b"/><feMergeNode in="SourceGraphic"/></feMerge>
    </filter>
    <filter id="glowHex" x="-20%" y="-20%" width="140%" height="140%">
      <feGaussianBlur stdDeviation="5" result="b"/>
      <feMerge><feMergeNode in="b"/><feMergeNode in="SourceGraphic"/></feMerge>
    </filter>
    <filter id="waShadow" x="-10%" y="-30%" width="130%" height="170%">
      <feDropShadow dx="1.5" dy="3" stdDeviation="2.5" flood-color="#8820AA" flood-opacity="0.38"/>
    </filter>
    <filter id="crownGlow" x="-80%" y="-80%" width="260%" height="260%">
      <feGaussianBlur stdDeviation="1.5" result="b"/>
      <feMerge><feMergeNode in="b"/><feMergeNode in="SourceGraphic"/></feMerge>
    </filter>
    <filter id="crownShadow" x="-60%" y="-60%" width="220%" height="220%">
      <feDropShadow dx="0" dy="1.5" stdDeviation="1.5" flood-color="#6B3A00" flood-opacity="0.45"/>
    </filter>
  </defs>

  <!-- HEXAGON -->
  <polygon points="250,72 363,134 363,258 250,320 137,258 137,134"
    fill="url(#gradHexFill)" filter="url(#glowHex)"/>
  <polygon points="250,72 363,134 363,258 250,320 137,258 137,134"
    fill="none" stroke="url(#gradHexStroke)" stroke-width="2.5" opacity="0.85"/>

  <!-- DOTS -->
  <circle cx="147" cy="152" r="5"  fill="#7B5CC8" opacity="0.9"/>
  <circle cx="353" cy="152" r="5"  fill="#F07080" opacity="0.9"/>
  <circle cx="130" cy="196" r="4"  fill="#3ECBA0" opacity="0.9"/>
  <circle cx="370" cy="196" r="4"  fill="#F0A0B0" opacity="0.75"/>

  <!-- LETTRE M -->
  <text x="250" y="278" text-anchor="middle"
    font-family="Georgia, serif"
    font-weight="700" font-size="185"
    fill="url(#gradM)" filter="url(#glowM)" letter-spacing="-4">M</text>

  <!-- FLÈCHE COURBE -->
  <path d="M 148 316 Q 250 350 352 316"
    fill="none" stroke="url(#gradArrow)" stroke-width="2.8" stroke-linecap="round"/>
  <polygon points="352,316 340,308 344,320" fill="#3ECBA0"/>

  <!-- WORDART — Couche 1 : contour blanc -->
  <g fill="none" stroke="white" stroke-width="5" stroke-linejoin="round" opacity="0.85">
    <path transform="translate(65.000,365) scale(0.059400,-0.059400)" d="M432 -10Q388 90 343.0 189.5Q298 289 255 391Q241 423 227.5 455.5Q214 488 201.5 521.0Q189 554 176 587Q176 576 175.5 565.0Q175 554 175 543Q174 507 172.5 456.5Q171 406 169.0 348.5Q167 291 166.0 233.5Q165 176 164 125Q163 103 162.5 81.0Q162 59 160 40Q179 41 197.5 42.0Q216 43 235 44V0H44V33Q75 34 89.5 46.5Q104 59 108.0 80.0Q112 101 113 125L132 581Q133 601 133.5 621.0Q134 641 135 660Q117 659 99.0 658.5Q81 658 63 657V700H216L388 303Q401 273 413.5 243.0Q426 213 439.5 183.0Q453 153 466 122H468Q479 149 494.0 186.5Q509 224 519 251Q563 361 610.5 471.5Q658 582 704 700H852V667Q827 668 811.0 657.5Q795 647 788.0 623.0Q781 599 783 558L809 103Q811 86 811.0 70.0Q811 54 811 41Q829 42 847.5 42.5Q866 43 884 44V0H660V33Q691 34 706.0 48.0Q721 62 724.5 88.0Q728 114 726 152L706 482Q705 498 704.0 514.0Q703 530 702.0 546.0Q701 562 700 578Q697 571 693.5 563.0Q690 555 687 546L462 -10Z"/>
    <path transform="translate(119.529,365) scale(0.059400,-0.059400)" d="M348 0Q345 17 344.0 30.0Q343 43 341 57Q307 23 267.5 3.5Q228 -16 184 -16Q108 -16 71.0 18.5Q34 53 34 103Q34 149 62.5 182.5Q91 216 136.5 237.5Q182 259 235.5 269.5Q289 280 339 279V341Q339 376 333.0 407.0Q327 438 307.0 458.0Q287 478 243 479Q214 480 183.5 468.0Q153 456 139 427Q147 419 149.5 408.5Q152 398 152 389Q152 377 142.0 361.5Q132 346 107 347Q86 347 75.0 361.5Q64 376 64 396Q64 430 89.5 457.0Q115 484 160.0 500.0Q205 516 262 516Q346 516 386.0 471.5Q426 427 425 331Q425 294 425.0 256.5Q425 219 424.5 181.5Q424 144 424 106Q424 90 423.0 74.0Q422 58 420 38Q438 39 455.5 40.0Q473 41 491 42V0ZM339 245Q305 244 267.5 236.5Q230 229 198.5 214.0Q167 199 147.5 174.5Q128 150 129 115Q131 78 153.5 59.5Q176 41 207 41Q248 41 278.5 56.5Q309 72 339 100Q338 111 338.0 124.0Q338 137 338 151Q338 156 338.5 183.0Q339 210 339 245Z"/>
    <path transform="translate(150.179,365) scale(0.059400,-0.059400)" d="M44 30Q75 30 87.0 45.5Q99 61 101.0 88.5Q103 116 103 152V380Q103 396 103.5 412.0Q104 428 107 445Q89 444 71.5 443.5Q54 443 36 442V483H67Q110 483 126.5 491.5Q143 500 154 510H183Q185 494 186.0 470.5Q187 447 188 411Q203 436 229.0 460.0Q255 484 287.5 500.0Q320 516 356 516Q384 516 405.0 501.0Q426 486 426 453Q426 445 421.0 433.5Q416 422 405.0 413.5Q394 405 376 405Q354 406 341.0 422.5Q328 439 331 461Q306 462 279.5 448.0Q253 434 230.0 409.5Q207 385 189 352L190 106Q190 86 189.5 70.5Q189 55 186 38Q202 39 217.5 39.5Q233 40 249 41V0H44Z"/>
    <path transform="translate(175.899,365) scale(0.059400,-0.059400)" d="M288 -16Q221 -16 164.5 14.5Q108 45 74.5 102.5Q41 160 41 241Q41 293 60.0 342.0Q79 391 113.5 430.5Q148 470 196.0 493.0Q244 516 302 516Q358 516 399.5 499.0Q441 482 464.0 454.0Q487 426 487 393Q487 371 475.0 355.5Q463 340 440 340Q415 339 404.5 355.5Q394 372 394 385Q394 395 397.0 405.5Q400 416 409 425Q401 449 381.0 460.5Q361 472 339.5 475.5Q318 479 304 479Q236 479 189.5 424.5Q143 370 143 266Q143 199 164.5 147.0Q186 95 225.0 65.5Q264 36 315 36Q362 36 405.0 61.0Q448 86 472 122L498 102Q472 60 435.5 34.0Q399 8 360.5 -4.0Q322 -16 288 -16Z"/>
    <path transform="translate(207.500,365) scale(0.059400,-0.059400)" d="M365 30Q396 30 408.0 45.5Q420 61 422.0 88.5Q424 116 424 152V292Q424 378 396.5 421.0Q369 464 310 463Q273 462 237.5 445.0Q202 428 180 401V106Q180 86 179.0 70.5Q178 55 175 38Q191 39 206.5 39.5Q222 40 238 41V0H34V30Q65 30 77.0 45.5Q89 61 91.5 88.5Q94 116 94 152V625Q94 641 94.5 655.5Q95 670 97 690Q79 689 61.5 688.0Q44 687 26 686V728Q70 728 94.5 732.0Q119 736 131.5 742.0Q144 748 151 755H180V450Q202 469 229.5 483.5Q257 498 286.5 507.0Q316 516 344 516Q431 516 469.5 461.5Q508 407 509 292L510 106Q510 86 509.5 70.5Q509 55 506 38Q522 39 537.5 39.5Q553 40 569 41V0H365Z"/>
    <path transform="translate(243.080,365) scale(0.059400,-0.059400)" d="M286 -16Q217 -16 161.5 16.5Q106 49 74.0 108.5Q42 168 42 249Q42 319 73.5 380.0Q105 441 162.0 478.5Q219 516 294 516Q336 516 372.5 502.5Q409 489 437.0 461.5Q465 434 481.0 392.5Q497 351 497 295L145 289Q145 213 161.5 155.5Q178 98 215.0 66.5Q252 35 310 35Q341 35 373.5 46.0Q406 57 434.0 76.0Q462 95 479 118L503 98Q476 56 438.0 31.0Q400 6 360.0 -5.0Q320 -16 286 -16ZM148 331H403Q403 367 392.5 400.5Q382 434 358.0 455.5Q334 477 295 477Q237 477 198.5 442.5Q160 408 148 331ZM227 580 199 603 283 738Q298 760 312.0 763.5Q326 767 336.0 763.0Q346 759 348 757Q352 754 357.0 744.0Q362 734 359.5 719.5Q357 705 339 686Z"/>
    <path transform="translate(275.275,365) scale(0.059400,-0.059400)" d="M258 -16Q197 -16 148.0 14.5Q99 45 70.5 102.0Q42 159 42 236Q42 318 75.0 381.0Q108 444 166.5 480.0Q225 516 299 516Q332 516 364.5 507.5Q397 499 416 488V625Q416 641 416.5 655.5Q417 670 419 690Q401 689 383.5 688.0Q366 687 348 686V728Q392 728 416.0 732.0Q440 736 452.5 742.0Q465 748 472 755H501V106Q501 90 500.0 74.0Q499 58 497 38Q515 39 532.5 40.0Q550 41 568 42V0H425Q422 15 420.5 27.5Q419 40 418 52Q390 21 349.0 2.5Q308 -16 258 -16ZM294 33Q327 33 360.5 52.0Q394 71 416 99Q415 111 415.0 124.5Q415 138 415 154L416 442Q392 460 363.5 468.5Q335 477 305 477Q255 477 218.0 448.0Q181 419 162.0 367.0Q143 315 145 245Q147 184 164.5 136.0Q182 88 214.5 60.5Q247 33 294 33Z"/>
    <path transform="translate(310.795,365) scale(0.059400,-0.059400)" d="M255 -16Q201 -16 164.5 4.0Q128 24 109.5 72.0Q91 120 91 202V380Q91 396 91.5 412.0Q92 428 95 445Q78 444 60.5 443.5Q43 443 26 442V483H57Q100 483 119.5 491.5Q139 500 150 510H179V205Q179 119 203.5 76.5Q228 34 287 35Q325 36 359.5 58.5Q394 81 415 112V369Q415 393 416.0 410.5Q417 428 420 445Q402 444 384.0 443.5Q366 443 348 442V483H379Q422 483 441.5 491.5Q461 500 472 510H501L500 132Q500 116 499.0 87.0Q498 58 496 38Q514 39 532.0 40.0Q550 41 568 42V0H425Q422 17 420.5 32.0Q419 47 418 60Q387 29 343.0 6.5Q299 -16 255 -16Z"/>
    <path transform="translate(346.257,365) scale(0.059400,-0.059400)" d="M55 0V33Q93 35 107.0 50.5Q121 66 122.5 93.5Q124 121 124 156V588Q124 608 125.0 626.5Q126 645 127 660Q109 659 91.0 658.0Q73 657 55 656V700Q111 701 168.5 702.0Q226 703 284 701Q381 700 440.5 678.5Q500 657 528.0 617.5Q556 578 556 522Q557 483 541.5 442.5Q526 402 485.5 370.0Q445 338 369 322Q389 308 404.0 286.0Q419 264 438 235L506 128Q523 101 539.0 79.5Q555 58 576.0 45.5Q597 33 628 33V0H502Q473 26 453.5 52.0Q434 78 413 111L346 218Q333 239 316.5 266.5Q300 294 279 313Q263 312 245.5 312.0Q228 312 211 313V119Q211 92 210.5 72.5Q210 53 208 40Q220 41 232.0 41.5Q244 42 256.0 43.0Q268 44 280 44V0ZM273 350Q328 352 369.5 368.0Q411 384 435.0 419.0Q459 454 459 511Q459 549 448.5 577.5Q438 606 416.0 625.0Q394 644 360.0 653.5Q326 663 280 663Q243 663 228.5 648.0Q214 633 212.5 606.5Q211 580 211 544V352Q227 351 241.5 350.0Q256 349 273 350Z"/>
    <path transform="translate(383.560,365) scale(0.059400,-0.059400)" d="M292 -16Q222 -16 165.0 16.5Q108 49 74.5 106.5Q41 164 41 238Q41 317 74.0 380.0Q107 443 164.0 479.5Q221 516 292 516Q362 516 419.0 482.5Q476 449 510.0 392.0Q544 335 544 262Q544 185 510.5 121.5Q477 58 420.0 21.0Q363 -16 292 -16ZM300 24Q353 24 384.0 54.0Q415 84 428.5 132.0Q442 180 442 233Q442 278 433.5 321.5Q425 365 407.0 400.5Q389 436 360.5 457.0Q332 478 292 478Q240 478 207.0 448.0Q174 418 158.5 370.0Q143 322 143 267Q143 205 160.0 149.5Q177 94 212.0 59.0Q247 24 300 24Z"/>
    <path transform="translate(418.309,365) scale(0.059400,-0.059400)" d="M44 30Q75 30 87.0 45.5Q99 61 101.0 88.5Q103 116 103 152V380Q103 396 104.0 410.5Q105 425 107 445Q89 444 71.5 443.0Q54 442 36 441V483Q80 483 104.0 487.0Q128 491 140.5 497.0Q153 503 160 510H189V106Q189 86 188.5 70.5Q188 55 185 38Q201 39 216.5 39.5Q232 40 248 41V0H44Z"/>
  </g>

  <!-- WORDART — Couche 2 : dégradé couleur + ombre -->
  <g fill="url(#gradWordArt)" filter="url(#waShadow)">
    <path transform="translate(65.000,365) scale(0.059400,-0.059400)" d="M432 -10Q388 90 343.0 189.5Q298 289 255 391Q241 423 227.5 455.5Q214 488 201.5 521.0Q189 554 176 587Q176 576 175.5 565.0Q175 554 175 543Q174 507 172.5 456.5Q171 406 169.0 348.5Q167 291 166.0 233.5Q165 176 164 125Q163 103 162.5 81.0Q162 59 160 40Q179 41 197.5 42.0Q216 43 235 44V0H44V33Q75 34 89.5 46.5Q104 59 108.0 80.0Q112 101 113 125L132 581Q133 601 133.5 621.0Q134 641 135 660Q117 659 99.0 658.5Q81 658 63 657V700H216L388 303Q401 273 413.5 243.0Q426 213 439.5 183.0Q453 153 466 122H468Q479 149 494.0 186.5Q509 224 519 251Q563 361 610.5 471.5Q658 582 704 700H852V667Q827 668 811.0 657.5Q795 647 788.0 623.0Q781 599 783 558L809 103Q811 86 811.0 70.0Q811 54 811 41Q829 42 847.5 42.5Q866 43 884 44V0H660V33Q691 34 706.0 48.0Q721 62 724.5 88.0Q728 114 726 152L706 482Q705 498 704.0 514.0Q703 530 702.0 546.0Q701 562 700 578Q697 571 693.5 563.0Q690 555 687 546L462 -10Z"/>
    <path transform="translate(119.529,365) scale(0.059400,-0.059400)" d="M348 0Q345 17 344.0 30.0Q343 43 341 57Q307 23 267.5 3.5Q228 -16 184 -16Q108 -16 71.0 18.5Q34 53 34 103Q34 149 62.5 182.5Q91 216 136.5 237.5Q182 259 235.5 269.5Q289 280 339 279V341Q339 376 333.0 407.0Q327 438 307.0 458.0Q287 478 243 479Q214 480 183.5 468.0Q153 456 139 427Q147 419 149.5 408.5Q152 398 152 389Q152 377 142.0 361.5Q132 346 107 347Q86 347 75.0 361.5Q64 376 64 396Q64 430 89.5 457.0Q115 484 160.0 500.0Q205 516 262 516Q346 516 386.0 471.5Q426 427 425 331Q425 294 425.0 256.5Q425 219 424.5 181.5Q424 144 424 106Q424 90 423.0 74.0Q422 58 420 38Q438 39 455.5 40.0Q473 41 491 42V0ZM339 245Q305 244 267.5 236.5Q230 229 198.5 214.0Q167 199 147.5 174.5Q128 150 129 115Q131 78 153.5 59.5Q176 41 207 41Q248 41 278.5 56.5Q309 72 339 100Q338 111 338.0 124.0Q338 137 338 151Q338 156 338.5 183.0Q339 210 339 245Z"/>
    <path transform="translate(150.179,365) scale(0.059400,-0.059400)" d="M44 30Q75 30 87.0 45.5Q99 61 101.0 88.5Q103 116 103 152V380Q103 396 103.5 412.0Q104 428 107 445Q89 444 71.5 443.5Q54 443 36 442V483H67Q110 483 126.5 491.5Q143 500 154 510H183Q185 494 186.0 470.5Q187 447 188 411Q203 436 229.0 460.0Q255 484 287.5 500.0Q320 516 356 516Q384 516 405.0 501.0Q426 486 426 453Q426 445 421.0 433.5Q416 422 405.0 413.5Q394 405 376 405Q354 406 341.0 422.5Q328 439 331 461Q306 462 279.5 448.0Q253 434 230.0 409.5Q207 385 189 352L190 106Q190 86 189.5 70.5Q189 55 186 38Q202 39 217.5 39.5Q233 40 249 41V0H44Z"/>
    <path transform="translate(175.899,365) scale(0.059400,-0.059400)" d="M288 -16Q221 -16 164.5 14.5Q108 45 74.5 102.5Q41 160 41 241Q41 293 60.0 342.0Q79 391 113.5 430.5Q148 470 196.0 493.0Q244 516 302 516Q358 516 399.5 499.0Q441 482 464.0 454.0Q487 426 487 393Q487 371 475.0 355.5Q463 340 440 340Q415 339 404.5 355.5Q394 372 394 385Q394 395 397.0 405.5Q400 416 409 425Q401 449 381.0 460.5Q361 472 339.5 475.5Q318 479 304 479Q236 479 189.5 424.5Q143 370 143 266Q143 199 164.5 147.0Q186 95 225.0 65.5Q264 36 315 36Q362 36 405.0 61.0Q448 86 472 122L498 102Q472 60 435.5 34.0Q399 8 360.5 -4.0Q322 -16 288 -16Z"/>
    <path transform="translate(207.500,365) scale(0.059400,-0.059400)" d="M365 30Q396 30 408.0 45.5Q420 61 422.0 88.5Q424 116 424 152V292Q424 378 396.5 421.0Q369 464 310 463Q273 462 237.5 445.0Q202 428 180 401V106Q180 86 179.0 70.5Q178 55 175 38Q191 39 206.5 39.5Q222 40 238 41V0H34V30Q65 30 77.0 45.5Q89 61 91.5 88.5Q94 116 94 152V625Q94 641 94.5 655.5Q95 670 97 690Q79 689 61.5 688.0Q44 687 26 686V728Q70 728 94.5 732.0Q119 736 131.5 742.0Q144 748 151 755H180V450Q202 469 229.5 483.5Q257 498 286.5 507.0Q316 516 344 516Q431 516 469.5 461.5Q508 407 509 292L510 106Q510 86 509.5 70.5Q509 55 506 38Q522 39 537.5 39.5Q553 40 569 41V0H365Z"/>
    <path transform="translate(243.080,365) scale(0.059400,-0.059400)" d="M286 -16Q217 -16 161.5 16.5Q106 49 74.0 108.5Q42 168 42 249Q42 319 73.5 380.0Q105 441 162.0 478.5Q219 516 294 516Q336 516 372.5 502.5Q409 489 437.0 461.5Q465 434 481.0 392.5Q497 351 497 295L145 289Q145 213 161.5 155.5Q178 98 215.0 66.5Q252 35 310 35Q341 35 373.5 46.0Q406 57 434.0 76.0Q462 95 479 118L503 98Q476 56 438.0 31.0Q400 6 360.0 -5.0Q320 -16 286 -16ZM148 331H403Q403 367 392.5 400.5Q382 434 358.0 455.5Q334 477 295 477Q237 477 198.5 442.5Q160 408 148 331ZM227 580 199 603 283 738Q298 760 312.0 763.5Q326 767 336.0 763.0Q346 759 348 757Q352 754 357.0 744.0Q362 734 359.5 719.5Q357 705 339 686Z"/>
    <path transform="translate(275.275,365) scale(0.059400,-0.059400)" d="M258 -16Q197 -16 148.0 14.5Q99 45 70.5 102.0Q42 159 42 236Q42 318 75.0 381.0Q108 444 166.5 480.0Q225 516 299 516Q332 516 364.5 507.5Q397 499 416 488V625Q416 641 416.5 655.5Q417 670 419 690Q401 689 383.5 688.0Q366 687 348 686V728Q392 728 416.0 732.0Q440 736 452.5 742.0Q465 748 472 755H501V106Q501 90 500.0 74.0Q499 58 497 38Q515 39 532.5 40.0Q550 41 568 42V0H425Q422 15 420.5 27.5Q419 40 418 52Q390 21 349.0 2.5Q308 -16 258 -16ZM294 33Q327 33 360.5 52.0Q394 71 416 99Q415 111 415.0 124.5Q415 138 415 154L416 442Q392 460 363.5 468.5Q335 477 305 477Q255 477 218.0 448.0Q181 419 162.0 367.0Q143 315 145 245Q147 184 164.5 136.0Q182 88 214.5 60.5Q247 33 294 33Z"/>
    <path transform="translate(310.795,365) scale(0.059400,-0.059400)" d="M255 -16Q201 -16 164.5 4.0Q128 24 109.5 72.0Q91 120 91 202V380Q91 396 91.5 412.0Q92 428 95 445Q78 444 60.5 443.5Q43 443 26 442V483H57Q100 483 119.5 491.5Q139 500 150 510H179V205Q179 119 203.5 76.5Q228 34 287 35Q325 36 359.5 58.5Q394 81 415 112V369Q415 393 416.0 410.5Q417 428 420 445Q402 444 384.0 443.5Q366 443 348 442V483H379Q422 483 441.5 491.5Q461 500 472 510H501L500 132Q500 116 499.0 87.0Q498 58 496 38Q514 39 532.0 40.0Q550 41 568 42V0H425Q422 17 420.5 32.0Q419 47 418 60Q387 29 343.0 6.5Q299 -16 255 -16Z"/>
    <path transform="translate(346.257,365) scale(0.059400,-0.059400)" d="M55 0V33Q93 35 107.0 50.5Q121 66 122.5 93.5Q124 121 124 156V588Q124 608 125.0 626.5Q126 645 127 660Q109 659 91.0 658.0Q73 657 55 656V700Q111 701 168.5 702.0Q226 703 284 701Q381 700 440.5 678.5Q500 657 528.0 617.5Q556 578 556 522Q557 483 541.5 442.5Q526 402 485.5 370.0Q445 338 369 322Q389 308 404.0 286.0Q419 264 438 235L506 128Q523 101 539.0 79.5Q555 58 576.0 45.5Q597 33 628 33V0H502Q473 26 453.5 52.0Q434 78 413 111L346 218Q333 239 316.5 266.5Q300 294 279 313Q263 312 245.5 312.0Q228 312 211 313V119Q211 92 210.5 72.5Q210 53 208 40Q220 41 232.0 41.5Q244 42 256.0 43.0Q268 44 280 44V0ZM273 350Q328 352 369.5 368.0Q411 384 435.0 419.0Q459 454 459 511Q459 549 448.5 577.5Q438 606 416.0 625.0Q394 644 360.0 653.5Q326 663 280 663Q243 663 228.5 648.0Q214 633 212.5 606.5Q211 580 211 544V352Q227 351 241.5 350.0Q256 349 273 350Z"/>
    <path transform="translate(383.560,365) scale(0.059400,-0.059400)" d="M292 -16Q222 -16 165.0 16.5Q108 49 74.5 106.5Q41 164 41 238Q41 317 74.0 380.0Q107 443 164.0 479.5Q221 516 292 516Q362 516 419.0 482.5Q476 449 510.0 392.0Q544 335 544 262Q544 185 510.5 121.5Q477 58 420.0 21.0Q363 -16 292 -16ZM300 24Q353 24 384.0 54.0Q415 84 428.5 132.0Q442 180 442 233Q442 278 433.5 321.5Q425 365 407.0 400.5Q389 436 360.5 457.0Q332 478 292 478Q240 478 207.0 448.0Q174 418 158.5 370.0Q143 322 143 267Q143 205 160.0 149.5Q177 94 212.0 59.0Q247 24 300 24Z"/>
    <path transform="translate(418.309,365) scale(0.059400,-0.059400)" d="M44 30Q75 30 87.0 45.5Q99 61 101.0 88.5Q103 116 103 152V380Q103 396 104.0 410.5Q105 425 107 445Q89 444 71.5 443.0Q54 442 36 441V483Q80 483 104.0 487.0Q128 491 140.5 497.0Q153 503 160 510H189V106Q189 86 188.5 70.5Q188 55 185 38Q201 39 216.5 39.5Q232 40 248 41V0H44Z"/>
  </g>

  

  <!-- COURONNE sur le ı -->
  <g transform="translate(426.6, 328)" filter="url(#crownShadow)">
    <rect x="-13" y="-4" width="26" height="8" rx="2.5"
          fill="url(#gradCrown)" stroke="#A06000" stroke-width="0.8"/>
    <rect x="-13" y="-4" width="26" height="4" rx="2" fill="white" opacity="0.25"/>
    <polygon points="-13,-4 -13,-15 -7,-6" fill="url(#gradCrown)" stroke="#A06000" stroke-width="0.7"/>
    <polygon points="-5,-4 0,-22 5,-4"    fill="url(#gradCrown)" stroke="#A06000" stroke-width="0.7"/>
    <polygon points="13,-4 13,-15 7,-6"   fill="url(#gradCrown)" stroke="#A06000" stroke-width="0.7"/>
    <circle cx="-13" cy="-15" r="2.8" fill="#FF3399" filter="url(#crownGlow)"/>
    <circle cx="0"   cy="-22" r="3.2" fill="#CC0055" filter="url(#crownGlow)"/>
    <circle cx="13"  cy="-15" r="2.8" fill="#FF3399" filter="url(#crownGlow)"/>
    <circle cx="-14" cy="-16.5" r="1"   fill="white" opacity="0.65"/>
    <circle cx="-1"  cy="-23.5" r="1.2" fill="white" opacity="0.65"/>
    <circle cx="12"  cy="-16.5" r="1"   fill="white" opacity="0.65"/>
    <circle cx="-6" cy="-0.5" r="2" fill="#FFF0A0" stroke="#C08000" stroke-width="0.4"/>
    <circle cx="0"  cy="-0.5" r="2" fill="#FFF0A0" stroke="#C08000" stroke-width="0.4"/>
    <circle cx="6"  cy="-0.5" r="2" fill="#FFF0A0" stroke="#C08000" stroke-width="0.4"/>
  </g>

  <!-- BÉNIN · AFRIQUE -->
  <text x="250" y="400" text-anchor="middle"
    font-family="'Raleway', Helvetica, Arial, sans-serif"
    font-weight="700" font-size="14"
    fill="#AAAAAA" letter-spacing="6">BÉNIN · AFRIQUE</text>

  <!-- Séparateur -->
  <line x1="185" y1="415" x2="315" y2="415" stroke="#BBBBBB" stroke-width="0.8" opacity="0.5"/>

  <!-- GLOBE -->
  <g transform="translate(250,450)">
    <circle cx="0" cy="0" r="22" fill="none" stroke="url(#gradGlobe)" stroke-width="1.8"/>
    <ellipse cx="0" cy="0" rx="22" ry="10" fill="none" stroke="url(#gradGlobe)" stroke-width="1.5"/>
    <ellipse cx="0" cy="0" rx="10" ry="22" fill="none" stroke="url(#gradGlobe)" stroke-width="1.5"/>
    <line x1="-22" y1="0" x2="22" y2="0" stroke="url(#gradGlobe)" stroke-width="1.2"/>
    <circle cx="0" cy="0" r="3.5" fill="#F07080"/>
  </g>
</svg>